<svg width="800" height="600" viewBox="0 0 800 600" fill="none" xmlns="http://www.w3.org/2000/svg">
  <rect width="800" height="600" fill="#1F2937"/>
  <path d="M400 150C323.333 150 260 213.333 260 290C260 366.667 323.333 430 400 430C476.667 430 540 366.667 540 290C540 213.333 476.667 150 400 150ZM400 390C345.333 390 300 344.667 300 290C300 235.333 345.333 190 400 190C454.667 190 500 235.333 500 290C500 344.667 454.667 390 400 390Z" fill="#60A5FA"/>
  <path d="M380 250V330H420V250H380ZM400 310C393.333 310 388 304.667 388 298C388 291.333 393.333 286 400 286C406.667 286 412 291.333 412 298C412 304.667 406.667 310 400 310Z" fill="#93C5FD"/>
  <path d="M320 270H340V310H320V270ZM460 270H480V310H460V270Z" fill="#93C5FD"/>
</svg>